<svg width="1440" height="356" viewBox="0 0 1440 356" fill="none" xmlns="http://www.w3.org/2000/svg">
<g opacity="0.12">
<path fill-rule="evenodd" clip-rule="evenodd" d="M467.837 28.7246C467.729 5.60571 424.655 -20.3922 406.255 -33.7956C369.874 -60.3059 332.036 -84.7867 294.549 -109.659C257.061 -134.531 219.473 -159.335 183.726 -186.641C160.516 -204.366 133.244 -224.33 117.502 -249.64C83.9689 -303.577 189.697 -295.567 217.084 -296.747C286.756 -299.761 366.669 -298.386 431.975 -326.474C470.96 -343.241 486.506 -371.363 478.133 -412.349C475.434 -425.678 467.445 -441.017 474.213 -454.002C481.439 -467.871 498.064 -475.874 511.862 -481.24C562.189 -500.793 620.053 -503.058 673.302 -505.512C730.72 -508.209 788.679 -507.42 845.693 -507.629C869.868 -507.717 895.116 -516.394 918.137 -523.446C948.317 -532.69 978.14 -543.073 1008.07 -553.112C1073.92 -575.145 1141.77 -598.352 1211.43 -603.948C1255.06 -607.454 1302.74 -602.714 1336.63 -572.219C1353.65 -556.908 1362.55 -534.146 1372.39 -513.926C1384.3 -489.499 1395.74 -464.837 1408.41 -440.794C1449.26 -363.36 1507.56 -287.693 1602.21 -283.89C1616.52 -283.317 1630.59 -285.184 1644.84 -285.535C1653.91 -285.751 1661.99 -283.56 1665.36 -274.073C1673.84 -250.28 1647.18 -212.72 1636.25 -193.841C1612.32 -152.519 1585.33 -113.05 1560.05 -72.5564C1543.32 -45.7764 1514.37 -9.1799 1514.07 23.3579C1513.8 52.3492 1552.39 73.3039 1573.4 87.5838C1593.09 100.954 1628.76 119.663 1630.92 146.861C1631.97 160.049 1623.27 170.978 1614.18 179.46C1598.25 194.292 1579.89 204.756 1565.56 221.679C1542.06 249.443 1522.43 287.644 1525.62 325.057C1527.83 350.981 1542.64 367.957 1561.47 384.186C1569.38 391.009 1575.81 395.836 1576.22 406.914C1576.9 424.504 1570 443.119 1564.32 459.428C1544 517.796 1515.13 574.234 1483.03 626.931C1466.98 653.266 1449.65 679.52 1428.37 701.985C1414.44 716.737 1395.65 734.294 1374.4 734.273C1349.79 734.273 1323.75 725.401 1299.83 718.766C1255.16 706.368 1211.03 692.034 1167.07 677.329C1065.41 643.308 964.708 606.532 864.963 567C794.704 539.108 722.954 511.175 656.9 474.093C644.017 466.811 631.858 458.32 620.586 448.735C608.542 438.669 593.597 434.166 578.443 430.808C484.387 409.968 381.344 425.967 286.897 435.999C262.924 438.541 238.952 441.096 214.911 442.876C194.245 444.407 169.503 448.796 149.417 442.202C109.838 429.224 144.437 381.388 159.065 361.896C210.566 293.267 277.013 235.204 338.601 175.927C367.884 147.697 397.389 119.542 425.08 89.7143C439.498 74.2073 467.931 48.9916 467.837 28.7246Z" stroke="white"/>
<path fill-rule="evenodd" clip-rule="evenodd" d="M485.584 24.8253C469.799 0.362034 442.103 -17.7193 419.113 -34.7357C386.029 -59.2327 351.905 -82.3684 318.295 -106.171C286.514 -128.68 254.666 -151.445 225.235 -177.007C207.288 -192.595 184.771 -211.235 176.271 -234.29C157.831 -284.261 257.029 -276.68 281.518 -277.987C342.399 -281.222 411.423 -281.963 467.746 -308.273C502.916 -324.703 517.365 -351.95 509.864 -389.777C507.271 -402.864 502.599 -414.038 508.514 -427.058C515.353 -442.127 531.085 -451.522 545.507 -458.153C590.683 -478.93 644.083 -483.344 693.054 -487.017C743.645 -490.811 796.357 -493.487 845.321 -490.71C864.901 -489.605 887.439 -495.879 906.816 -500.691C936.632 -508.104 966.145 -516.656 995.812 -524.608C1056.11 -540.782 1117.97 -556.363 1180.69 -558.136C1225.97 -559.416 1273.19 -552.475 1310.87 -525.646C1349.05 -498.44 1365.99 -456.266 1387.16 -416.174C1423.73 -346.862 1473.12 -262.588 1557.72 -247.944C1570.55 -245.72 1582.88 -246.926 1595.69 -246.38C1602.28 -246.104 1609.78 -245.228 1613.12 -238.738C1621.8 -221.89 1598.03 -191.085 1590.03 -178.18C1567.92 -142.516 1543.07 -108.597 1519.9 -73.6209C1501.5 -45.8487 1478.18 -14.9899 1471.07 17.9311C1462.43 57.8811 1518.85 86.307 1538.7 114.436C1573.1 163.215 1507.92 191.007 1475.79 214.264C1438.89 240.965 1408.44 289.676 1441.51 330.987C1454.17 346.784 1469.74 356.199 1475.39 376.814C1484.22 409.054 1477.54 445.897 1470.37 477.767C1459.57 525.676 1442.47 573.066 1419.23 616.365C1402.58 647.366 1374.96 695.975 1334.51 692.33C1307.28 689.897 1279.6 681.008 1253.08 673.15C1213.38 661.39 1174.18 647.986 1135.19 634.062C1045.18 602.011 956.165 566.67 868.898 527.799C809.354 501.267 643.26 392.84 630.762 388.971C593.499 377.447 551.131 379.476 512.713 381.262C461.609 383.634 410.761 389.78 359.953 395.475C335.769 398.17 311.462 401.466 287.149 402.793C269.844 403.737 247.117 404.546 231.959 394.497C202.373 374.893 235.335 330.037 248.967 311.059C290.727 252.88 343.553 202.498 393.085 150.983C417.391 125.691 442.069 100.439 464.134 73.1184C473.033 62.0863 495.341 39.9346 485.584 24.8253Z" stroke="white"/>
<path fill-rule="evenodd" clip-rule="evenodd" d="M507.423 12.2813C464.313 -36.6725 404.811 -73.0811 353.458 -113.966C327.683 -134.492 301.746 -155.579 279.516 -180.028C267.952 -192.742 253.512 -208.82 251.284 -226.542C245.33 -273.952 334.737 -267.541 361.498 -269.341C413.236 -272.833 471.684 -275.482 518.623 -299.676C547.3 -314.466 561.423 -338.741 556.063 -370.646C553.687 -384.803 549.987 -396.829 556.063 -410.729C562.22 -424.811 575.046 -434.747 588.035 -442.196C625.36 -463.619 671.745 -470.468 713.769 -475.571C763.067 -481.515 812.736 -483.836 862.375 -482.515C905.85 -481.375 949.116 -494.19 991.565 -502.637C1047.8 -513.82 1105.05 -523.588 1162.6 -522.112C1208.04 -520.939 1253.85 -511.724 1292.7 -487.233C1332.18 -462.291 1355.91 -424.959 1377.31 -384.674C1409.66 -323.775 1449.98 -242.168 1520.95 -219.039C1531.27 -215.669 1540.89 -215.298 1551.54 -214.711C1556.71 -214.428 1563.39 -214.341 1565.95 -208.954C1572.12 -195.985 1549.31 -170.84 1542.94 -162.077C1522.62 -134.101 1500.6 -107.386 1479.77 -79.7817C1460.33 -54.0106 1439.15 -27.154 1427.07 3.04603C1407.85 51.1437 1469.3 79.2675 1467.58 125.1C1466.51 153.554 1439.23 173.96 1417.62 188.075C1391.02 205.434 1352.73 216.846 1339.41 248.523C1329.5 272.117 1345.06 285.848 1357.04 303.753C1377.35 334.087 1378.73 375.208 1376.62 410.322C1373.77 457.773 1362.64 505.924 1343.69 549.539C1335.1 569.311 1324.58 589.878 1309.1 605.234C1294.59 619.626 1280.86 623.314 1261.47 620.368C1202.12 611.335 1142.19 586.157 1085.27 563.669C1013.76 535.41 943.236 504.212 874.816 469.111C828.161 445.174 780.454 419.848 739.503 386.776C728.83 378.154 717.9 368.784 710.096 357.412C704.196 348.864 701.692 341.806 691.748 336.925C662.274 322.466 621.276 326.248 589.696 327.751C539.199 330.144 488.946 336.514 438.761 342.251C409.476 345.621 354.308 356.225 330.923 330.791C310.738 308.829 335.095 271.382 347.537 252.035C379.009 203.108 419.494 160.167 457.056 115.952C474.27 95.6888 492.16 75.27 506.377 52.7413C510.009 46.9979 515.828 39.3872 516.827 32.4102C517.948 24.4153 512.716 18.3146 507.423 12.2813Z" stroke="white"/>
<path fill-rule="evenodd" clip-rule="evenodd" d="M511.13 23.6784C471.294 -19.6057 423.302 -55.1654 380.536 -95.67C361.36 -113.831 341.996 -132.883 327.385 -155.037C319.526 -166.951 311.181 -181.948 313.348 -196.756C319.567 -239.258 393.101 -235.419 422.809 -237.909C466.952 -241.565 517.665 -245.249 556.698 -268.166C582.267 -283.176 591.854 -305.344 587.081 -333.935C581.956 -364.604 593.414 -386.866 619.49 -403.975C652.182 -425.408 693.449 -434.144 731.408 -440.351C777.141 -447.793 823.453 -451.092 869.78 -450.207C914.835 -449.344 958.485 -456.886 1003.24 -461.791C1062.59 -468.287 1123.83 -471.492 1182.5 -458.175C1233.59 -446.578 1279.73 -421.023 1314.32 -381.503C1350.45 -340.256 1368.33 -288.29 1397.67 -242.658C1415.97 -214.195 1441.48 -176.544 1475.68 -165.481C1487.08 -161.79 1507.86 -166.769 1498.75 -148.615C1493.55 -138.232 1483.8 -129.125 1476.11 -120.638C1463.67 -106.923 1450.82 -93.5854 1438.18 -80.0591C1411.22 -51.2255 1382.36 -21.7781 1362.16 12.3649C1336.7 55.3522 1374.54 88.4359 1369.93 132.024C1367.45 155.48 1351.12 174.201 1333.85 188.908C1322.68 198.434 1310.45 206.685 1297.97 214.382C1284.93 222.424 1269.5 228.549 1258.13 238.945C1241.93 253.74 1248.96 271.253 1252 290.379C1257.35 323.99 1258.52 358.133 1255.5 392.032C1251.8 433.582 1243.12 476.32 1224.85 514.079C1217.74 528.779 1208.73 544.363 1195.35 554.219C1181.98 564.076 1168.14 563.401 1152.82 560.433C1107.36 551.662 1061.99 531.255 1018.87 511.913C964.893 487.701 911.979 460.642 861.448 429.858C826.568 408.608 791.573 385.65 762.392 356.837C753.905 348.451 745.83 339.472 739.301 329.447C734.818 322.572 732.414 313.701 725.919 308.533C705.596 292.403 664.794 297.22 640.96 298.158C593.394 300.026 546.577 308.911 499.071 311.07C473.144 312.251 432.538 315.219 413.498 293.165C395.592 272.434 411.81 239.782 422.512 219.806C443.544 180.529 471.8 145.536 497.126 109.026C507.538 94.0016 518.948 78.2828 525.693 61.127C531.689 45.8399 521.338 34.776 511.13 23.6784Z" stroke="white"/>
<path fill-rule="evenodd" clip-rule="evenodd" d="M520.927 24.3858C489.219 -13.703 450.994 -47.514 419.057 -86.2226C400.363 -108.891 368.169 -147 382.626 -178.959C398.487 -214.077 453.774 -215.033 485.732 -217.863C523.768 -221.231 568.435 -225.832 600.987 -247.76C611.282 -254.692 620.052 -263.867 623.769 -275.952C627.75 -288.887 623.398 -300.204 622.832 -313.152C621.644 -340.314 637.876 -362.12 659.357 -377.096C689.715 -398.269 727.677 -408.28 763.534 -415.259C804.158 -423.131 845.457 -427.011 886.838 -426.846C926.385 -426.711 965.514 -427.587 1005.1 -428.597C1056.87 -429.945 1109.37 -427.769 1159.59 -414.033C1209.07 -400.492 1254.04 -375.115 1289.37 -337.788C1323.84 -301.363 1347.1 -256.841 1367.46 -211.49C1379.02 -185.749 1398.54 -147.283 1426.11 -134.282C1438.37 -128.495 1450.4 -128.892 1437.36 -113.843C1420.95 -94.8926 1398.83 -79.6881 1379.82 -63.4798C1352.39 -40.0903 1324.28 -16.2427 1301.26 11.566C1286.56 29.3237 1280.01 46.556 1281.02 69.548C1281.81 87.0632 1285.35 104.397 1283.56 121.979C1279.36 163.248 1246.82 191.548 1218.05 217.902C1199.55 234.851 1182.65 247.778 1173.12 271.889C1161.85 300.385 1157.13 331.387 1149.6 360.974C1141.33 393.464 1131.77 427.262 1113.72 455.879C1097.65 481.357 1078.1 492.782 1048.85 485.918C1003.23 475.22 958.255 448.866 917.75 424.486C876.523 399.682 836.004 371.793 801.84 337.699C783.396 319.288 770.807 297.67 754.427 277.891C733.823 253.06 687.212 262.464 659.512 264.566C613.528 268.056 468.839 294.167 482.19 209.595C487.762 174.296 509.708 141.717 525.758 110.567C532.41 97.6397 542.037 82.1253 543.541 67.3115C545.181 51.1773 530.46 35.8515 520.927 24.3858Z" stroke="white"/>
<path fill-rule="evenodd" clip-rule="evenodd" d="M537.669 27.6185C513.438 -6.8977 484.44 -39.5064 463.648 -76.786C450.161 -100.929 436.916 -133.187 454.315 -158.732C473.953 -187.56 517.255 -194.28 549.073 -197.953C581.854 -201.734 620.989 -204.916 647.782 -226.774C656.306 -233.736 663.333 -243.125 664.642 -254.368C665.903 -265.152 662.342 -275.936 663.522 -286.916C666.166 -311.571 681.13 -331.886 700.424 -346.62C757.498 -390.208 842.443 -399.901 911.304 -401.04C945.772 -401.606 981.245 -398.634 1015.93 -396.504C1060.95 -393.74 1106.03 -387.809 1148.96 -373.513C1240.24 -343.129 1301.42 -275.741 1344.15 -191.887C1357.6 -165.493 1367.89 -136.935 1388.96 -115.724C1399.83 -104.771 1397.45 -96.9053 1386.35 -86.9164C1368.98 -71.3063 1347.8 -59.3763 1328.53 -46.3476C1301.11 -27.819 1273.11 -9.01408 1248.87 13.1811C1232.16 28.4812 1220.29 43.2219 1216.69 66.1652C1214.12 82.5235 1214.72 99.1918 1213.18 115.651C1210.24 146.919 1200.17 177.95 1182.35 203.886C1168.18 224.443 1151.32 243.127 1133.9 260.941C1111.25 284.134 1092.09 307.697 1074.88 335.224C1052.08 371.661 1020.03 438.874 966.307 421.086C907.056 401.459 851.52 351.589 813.505 303.269C800.739 287.046 790.259 267.149 773.042 255.185C747.267 237.304 721.115 237.93 690.457 238.005C644.558 238.106 544.682 248.061 543.603 179.366C543.178 152.149 554.967 126.415 560.611 100.237C566.977 70.917 554.218 51.1415 537.669 27.6185Z" stroke="white"/>
<path fill-rule="evenodd" clip-rule="evenodd" d="M555.716 30.698C531.749 -14.2878 478.004 -88.2089 518.881 -138.233C540.473 -164.669 578.665 -174.604 610.702 -180.524C636.484 -185.313 667.577 -187.112 687.057 -207.412C701.376 -222.338 695.02 -244.059 700.505 -262.743C707.314 -285.907 722.941 -304.86 742.145 -319.105C795.808 -358.918 870.423 -371.136 934.977 -373.736C1002.02 -376.43 1075.89 -363.829 1138.98 -339.588C1217.65 -309.353 1276.58 -252.102 1317.79 -179.602C1325.4 -166.218 1332.31 -152.485 1339.61 -138.94C1344.51 -129.854 1351.79 -121.064 1355.65 -111.507C1362.09 -95.5707 1354.51 -82.5444 1342.35 -72.1584C1324.86 -57.2058 1303.37 -46.5639 1283.43 -35.3427C1256.17 -19.986 1228.29 -4.90539 1202.93 13.1118C1185.88 25.2356 1168.04 38.2955 1161.94 59.3302C1157.78 73.6766 1156.92 88.8717 1157.07 103.73C1157.39 135.589 1155.72 161.351 1140.83 190.529C1116.34 238.431 1078.67 281.504 1038.88 317.343C1007.65 345.471 958.242 389.163 912.743 370.358C871.921 353.519 848.041 313.215 821.145 280.629C808.068 264.787 793.379 250.319 776.119 239.051C754.358 224.846 733.872 218.885 708.09 216.562C664.696 212.648 599.265 211.631 585.851 159.634C580.898 140.445 583.725 120.569 581.127 101.13C577.733 75.4279 567.808 53.3896 555.716 30.698Z" stroke="white"/>
<path fill-rule="evenodd" clip-rule="evenodd" d="M580.638 32.3638C563.571 -16.8593 541.15 -78.894 582.371 -122.642C602.338 -143.835 630.423 -155.682 657.604 -164.536C677.072 -170.881 707.983 -172.748 719.918 -192.256C728.684 -206.611 729.898 -226.415 737.828 -241.796C748.725 -262.941 765.232 -280.358 784.599 -293.992C835.051 -329.521 900.763 -343.249 960.69 -347.18C1090.9 -355.71 1223.39 -287.776 1293.07 -176.005C1313.84 -142.689 1340.66 -107.228 1307.09 -73.1895C1270.43 -36.0564 1215.21 -18.6597 1171.46 7.72528C1154.74 17.7992 1133.44 29.9094 1124.12 48.149C1118.51 59.1129 1118.12 72.8684 1117.87 84.9382C1117.19 115.679 1114.64 143.325 1102.26 172.009C1083.15 216.337 1052.68 257.233 1018.15 290.731C988.033 319.942 945.086 354.27 901.35 333.212C867.816 317.029 846.548 282.68 820.493 257.361C791.497 229.162 755.637 210.161 716.257 200.876C677.949 191.867 635.932 185.792 615.743 147.519C608.818 134.391 601.582 117.392 598.986 102.861C594.795 78.9025 588.659 55.3255 580.638 32.3638Z" stroke="white"/>
<path fill-rule="evenodd" clip-rule="evenodd" d="M608.426 32.7115C600.531 -16.9934 599.653 -68.8218 636.338 -107.996C653.459 -126.273 675.101 -139.257 696.986 -151.021C713.088 -159.677 729.716 -166.978 741.741 -181.168C752.883 -194.308 761.352 -209.564 772.109 -223.047C786.299 -240.914 803.277 -256.382 822.392 -268.855C870.306 -300.061 928.592 -314.656 984.354 -319.719C1011.35 -322.18 1040.63 -323.461 1067.44 -316.753C1093.33 -310.281 1118.94 -300.048 1142.75 -288.115C1193.36 -262.774 1237.22 -225.662 1269.02 -178.742C1290.83 -146.558 1302.62 -115.264 1274.38 -82.6148C1242.55 -45.8131 1192.64 -25.5078 1151.5 -1.62277C1123.28 14.759 1091.66 30.8172 1086.39 65.6302C1082.19 93.3309 1078.78 119.623 1067.93 145.807C1051.77 184.428 1028.01 219.414 998.053 248.688C970.661 275.357 936.008 297.989 896.827 283.744C865.784 272.438 841.699 247.111 814.577 229.003C784.351 208.779 751.142 197.628 716.172 188.662C684.744 180.572 655.152 168.141 634.84 141.748C630.683 136.355 626.316 130.483 623.111 124.45C619.021 116.751 619.339 109.119 618.536 100.49C616.444 77.7177 611.996 55.2078 608.426 32.7115Z" stroke="white"/>
<path fill-rule="evenodd" clip-rule="evenodd" d="M639.066 28.6468C639.74 -18.5655 651.106 -63.1849 682.236 -99.9783C695.544 -115.718 711.436 -128.682 726.08 -143.105C737.871 -154.733 749.014 -165.537 762.572 -175.118C794.733 -197.806 820.871 -227.165 855.05 -247.368C900.675 -274.377 952.937 -289.307 1004.79 -295.276C1030.12 -298.193 1056.27 -299.212 1081.89 -295.917C1103.9 -293.088 1124.97 -283.155 1144.52 -272.993C1182.83 -253.087 1220.03 -224.795 1244.91 -189.001C1299.75 -110.087 1191.62 -52.7121 1136.12 -19.1125C1110.59 -3.65641 1071.59 14.2441 1061.14 44.8591C1053.66 66.7299 1049.11 88.972 1039.49 110.168C1013.63 167.09 961.146 234.039 891.204 225.126C861.276 221.318 833.998 205.848 806.059 195.463C777.29 184.767 747.597 178.805 717.696 172.262C689.75 166.151 667.477 157.454 649.427 134.138C640.799 123.004 641.562 109.675 640.793 96.0147C639.538 73.5767 638.762 51.0105 639.066 28.6468Z" stroke="white"/>
<path fill-rule="evenodd" clip-rule="evenodd" d="M666.966 22.5982C678.202 -48.6645 719.934 -126.463 781.297 -167.849C853.477 -216.532 931.674 -257.527 1017.91 -269.312C1057.9 -274.777 1101.7 -277.465 1139.42 -259.595C1168.14 -246.005 1201.49 -225.689 1217.29 -197.119C1255.95 -127.238 1169.96 -71.6079 1120.97 -39.2782C1094.59 -21.8736 1061.02 -4.91371 1041.14 20.5026C1029.6 35.2389 1023.71 54.7324 1014.4 70.9174C986.183 119.964 939.73 159.524 881.866 166.599C855.111 169.867 828.161 165.824 801.609 162.61C774.429 159.322 746.912 157.536 719.9 152.948C698.339 149.282 672.928 143.076 664.987 120.025C654.973 90.9769 662.38 51.7002 666.966 22.5982Z" stroke="white"/>
<path fill-rule="evenodd" clip-rule="evenodd" d="M694.324 11.151C710.712 -55.848 745.414 -121.201 803.752 -161.198C834.688 -182.407 870.601 -197.048 905.08 -211.513C944.163 -227.907 984.997 -240.633 1026.7 -246.945C1078.63 -254.808 1162.73 -261.896 1189.86 -202.787C1216.79 -144.117 1148.75 -92.1899 1108.51 -62.5984C1082.71 -43.6418 1055.1 -26.243 1030.45 -5.51952C1017.08 5.71553 1006.79 18.6972 995.476 31.8745C964.215 68.385 919.649 97.2887 874.225 112.718C830.199 127.676 775.736 134.298 729.263 129.355C709.211 127.231 694.879 120.062 688.814 99.6827C680.411 71.3523 687.55 38.8272 694.324 11.151Z" stroke="white"/>
<path fill-rule="evenodd" clip-rule="evenodd" d="M721.51 -6.89152C737.79 -65.8816 772.904 -119.761 824.124 -155.166C881.538 -194.855 955.469 -216.909 1023.42 -228.124C1059.54 -234.081 1137.81 -250.232 1156.22 -204.009C1174.63 -157.785 1121.41 -112.233 1090.78 -87.1567C1053.6 -56.7685 1013.52 -27.4279 973.481 -0.162436C938.697 23.5437 901.58 47.7804 863.903 66.0872C842.654 76.4725 820.518 84.952 797.759 91.4252C780.906 96.1799 759.476 103.272 741.807 99.7325C697.241 90.794 713.724 21.3141 721.51 -6.89152Z" stroke="white"/>
<path fill-rule="evenodd" clip-rule="evenodd" d="M755.067 -24.5571C790.787 -136.114 903.959 -190.98 1012.92 -210.104C1038.25 -214.543 1109.23 -230.548 1123.38 -196.47C1137.1 -163.429 1093.48 -124.245 1073.06 -105.68C1009.78 -48.1537 931.598 -5.50051 857.516 36.7553C834.392 49.9446 792.687 78.5665 764.003 65.3636C732.86 51.0022 747.667 -1.42517 755.067 -24.5571Z" stroke="white"/>
<path fill-rule="evenodd" clip-rule="evenodd" d="M791.655 -46.029C822.719 -128.183 913.071 -175.301 996.141 -190.834C1016.49 -194.635 1068.16 -206.468 1083.57 -183.542C1097.83 -162.335 1063.8 -131.606 1051.07 -119.395C1022.72 -92.2037 989.129 -69.8037 955.942 -48.273C925.256 -28.3529 894.239 -7.93422 861.952 8.91296C844.945 17.7813 813.05 36.7041 793.724 23.0107C772.918 8.27953 784.758 -27.7869 791.655 -46.029Z" stroke="white"/>
<path fill-rule="evenodd" clip-rule="evenodd" d="M-207.146 91.9456C-208.002 39.314 -235.997 -15.3852 -222.171 -69.0136C-210.819 -113.059 -153.663 -116.736 -119.376 -136.691C-92.1289 -152.544 -76.6661 -180.628 -61.931 -207.573C-48.6916 -231.764 -36.7997 -256.683 -22.8529 -280.476C-13.8245 -295.858 1.67871 -326.064 21.2582 -326.609C40.0022 -327.134 57.1898 -303.597 68.0778 -289.683C82.2739 -271.546 94.8597 -252.211 108.645 -233.785C131.876 -202.704 159.75 -179.698 191.666 -157.925C227.986 -133.15 264.906 -109.222 302.425 -86.14C330.049 -69.0945 357.862 -52.1769 384.415 -33.4477C401.07 -21.6957 437.831 0.353723 438 22.0192C438.08 32.357 428.277 43.806 421.667 52.0695C410.483 66.0574 397.735 78.8466 384.947 91.3597C361.13 114.668 336.302 136.92 311.743 159.441C279.868 188.669 249.42 217.42 221.399 250.602C192.427 284.949 164.749 320.427 136.505 355.42C117.377 379.127 98.2689 405.749 70.6785 420.296C36.1213 438.479 7.75601 419.306 -27.1919 419.083C-57.2551 418.888 -55.0384 349.278 -58.8586 329.923C-62.6923 310.332 -71.1413 292.094 -74.4158 272.456C-78.4988 247.941 -78.5527 222.861 -79.5566 198.084C-80.7761 167.778 -81.2612 138.927 -113.676 127.37C-132.123 120.804 -152.08 119.423 -171.174 115.49C-183.545 112.938 -206.877 108.574 -207.146 91.9456Z" stroke="white"/>
<path fill-rule="evenodd" clip-rule="evenodd" d="M-192.366 82.5816C-195.518 38.4633 -214.135 -18.0049 -196.53 -63.5464C-181.489 -102.464 -134.45 -107.51 -102.776 -127.953C-76.628 -144.816 -64.988 -172.409 -51.9175 -199.517C-41.4314 -221.262 -31.2625 -243.217 -19.3593 -264.268C-10.5872 -279.781 2.80727 -305.971 21.0466 -309.182C37.4438 -312.069 55.0286 -288.947 64.2326 -277.184C77.6607 -260.012 89.1455 -241.362 101.008 -223.103C121.852 -191.032 143.195 -162.19 173.702 -138.63C204.344 -114.969 237.867 -97.2776 271.748 -78.864C298.253 -64.4569 324.624 -49.6317 349.807 -32.9988C368.566 -20.6152 395.537 -4.76469 404.12 17.3181C410.915 34.7873 376.454 63.7768 366.292 74.0088C345.373 95.0461 323.207 114.795 301 134.423C273.928 158.34 245.992 179.256 222.084 206.539C179.323 255.318 143.58 316.063 88.5584 352.316C55.3727 374.183 18.4419 379.775 -18.4686 376.504C-33.0844 375.208 -36.5932 354.589 -38.4354 342.563C-41.4989 322.585 -41.8835 302.263 -44.2385 282.203C-46.445 263.425 -51.3439 245.585 -55.2914 227.172C-59.2861 208.515 -60.4063 189.4 -63.3483 170.616C-65.1702 158.954 -66.9719 145.383 -74.941 136.008C-83.1869 126.302 -96.7905 122.235 -108.68 119.146C-131.009 113.399 -190.14 113.716 -192.366 82.5816Z" stroke="white"/>
<path fill-rule="evenodd" clip-rule="evenodd" d="M-173.344 64.1136C-178.644 23.6163 -186.064 -26.8235 -164.473 -64.1346C-146.826 -94.6423 -109.188 -101.223 -82.3047 -121.102C-59.9448 -137.632 -51.4991 -163.923 -40.4002 -188.355C-31.2928 -208.394 -22.1382 -228.522 -11.1001 -247.592C-2.72861 -262.054 8.05978 -281.663 24.6812 -286.708C38.8924 -291.019 54.9467 -271.707 62.8253 -262.094C76.2399 -245.712 87.1768 -227.357 98.0395 -209.243C115.809 -179.604 132.16 -147.945 157.45 -123.836C182.024 -100.442 211.216 -86.6331 240.955 -71.1064C263.734 -59.2105 286.37 -46.8566 307.832 -32.6704C324.312 -21.7849 344.734 -8.88529 353.322 9.22802C360.748 24.849 341.683 43.3395 332.157 54.3597C316.427 72.5471 298.968 89.2324 281.753 105.985C263.173 124.058 242.596 140.73 224.617 159.247C186.811 198.215 156.606 241.36 110.009 271.214C79.8315 290.554 39.2232 308.121 3.54999 304.962C-22.1045 302.685 -20.4167 245.954 -22.8809 227.827C-26.9316 198.188 -34.7562 167.048 -47.1851 139.746C-57.8587 116.352 -83.2229 109.137 -106.555 103.89C-121.171 100.596 -136.49 98.8179 -150.627 93.7254C-166.992 87.8246 -171.123 81.0885 -173.344 64.1136Z" stroke="white"/>
<path fill-rule="evenodd" clip-rule="evenodd" d="M-155.601 45.1309C-158.756 10.8925 -158.047 -29.5951 -137.607 -59.2125C-119.695 -85.1548 -87.8021 -91.985 -65.1192 -112.421C-47.4161 -128.365 -40.4632 -154.361 -30.9427 -175.446C-19.3074 -201.226 -3.00294 -248.841 26.3491 -258.543C53.6537 -267.562 82.2084 -209.948 92.0938 -192.768C107.743 -165.576 120.831 -135.756 139.811 -110.645C156.156 -89.0259 178.055 -77.0749 201.299 -64.2321C230.935 -47.829 275.929 -28.379 291.774 3.58945C303.585 27.4104 265.179 62.8244 252.063 79.3288C238.347 96.5696 228.016 117.006 213.86 133.639C191.522 159.885 155.325 181.017 125.439 197.143C96.3844 212.83 58.6538 230.193 25.6936 229.159C4.031 228.484 -0.0907097 195.056 -4.71243 178.727C-11.3342 155.514 -20.1384 134.713 -39.051 118.925C-58.3014 102.853 -80.9911 95.2792 -104.843 88.6518C-117.087 85.2739 -131.053 82.6391 -142.006 75.8158C-154.108 68.3911 -154.385 58.2912 -155.601 45.1309Z" stroke="white"/>
<path fill-rule="evenodd" clip-rule="evenodd" d="M-133.982 25.3976C-133.807 -4.18191 -127.038 -35.7244 -106.968 -58.5409C-90.2515 -77.5457 -64.0861 -83.8986 -48.0837 -103.327C-35.4084 -118.708 -28.9563 -140.301 -20.4702 -158.163C-10.0916 -180.052 4.58397 -218.29 30.3925 -225.887C55.5814 -233.282 77.8608 -191.165 87.5188 -174.499C101.662 -150.063 113.112 -124.16 127.383 -99.7909C138.563 -80.6718 152.235 -68.3492 170.44 -56.0267C191.81 -41.5529 221.626 -25.5195 233.042 -1.57355C241.272 15.7641 221.35 43.4679 214.117 58.7417C209.267 69.0004 204.829 79.4204 202.391 90.5396C200.492 99.1983 200.303 107.212 194.801 114.647C180.947 133.349 150.572 135.789 129.963 141.954C102.592 150.136 73.5504 159.433 44.9064 161.208C27.3011 162.317 18.3167 146.109 8.26804 134.707C-3.60577 121.228 -20.4163 111.534 -35.0986 101.363C-54.4752 87.9178 -75.5625 79.5549 -97.3772 70.9903C-107.217 67.1248 -118.774 63.3332 -126.398 55.6493C-134.359 47.683 -134.042 36.0731 -133.982 25.3976Z" stroke="white"/>
<path fill-rule="evenodd" clip-rule="evenodd" d="M-111.276 7.83902C-107.797 -17.0037 -96.9558 -40.7476 -78.6449 -58.3094C-64.6084 -71.7926 -45.9671 -79.3837 -34.7014 -95.5837C-24.2044 -110.685 -16.8894 -127.856 -8.21939 -144.002C0.956291 -161.072 14.5883 -189.602 35.7511 -194.247C58.5588 -199.249 76.1281 -170.469 85.8566 -154.519C98.1471 -134.361 107.485 -112.674 118.474 -91.8219C126.753 -76.2802 137.313 -62.0662 149.803 -49.6532C162.903 -36.5678 180.668 -24.0352 187.295 -6.04191C193.153 9.8952 182.191 29.1761 180.256 45.3357C178.187 62.6009 181.814 80.7358 170.339 95.5606C146.675 126.134 87.2859 120.464 53.3339 121.118C19.8335 121.792 -7.10024 103.084 -34.2093 85.2864C-52.1157 73.5358 -70.7637 63.5852 -89.1218 52.6369C-107.837 41.4661 -114.336 29.702 -111.276 7.83902Z" stroke="white"/>
<path fill-rule="evenodd" clip-rule="evenodd" d="M-90.1792 -6.3828C-79.8916 -42.3728 -47.7607 -61.5013 -24.7907 -88.6996C-5.9965 -110.966 8.09579 -157.077 39.7478 -163.176C75.6834 -170.099 97.1963 -109.002 109.69 -85.4272C123.553 -59.2815 148.243 -38.014 158.51 -10.3367C163.907 4.1902 159.272 17.7455 156.399 32.2656C153.248 48.2094 150.881 64.5109 140.006 77.3442C118.601 102.599 76.7965 102.424 46.6894 103.119C15.5231 103.841 -12.0476 86.534 -36.8795 69.2609C-63.2156 50.969 -100.716 30.5248 -90.1792 -6.3828Z" stroke="white"/>
<path fill-rule="evenodd" clip-rule="evenodd" d="M-72.9486 -16.1413C-61.3564 -41.7831 -36.9965 -62.6292 -17.23 -82.3082C-0.731913 -98.7141 17.0165 -131.741 42.1714 -134.095C71.7362 -136.872 89.6545 -101.605 101.287 -79.9808C112.737 -58.7323 129.235 -36.2966 135.575 -12.9755C142.186 11.3181 124.58 44.036 107.79 61.2267C89.0633 80.3959 58.4249 87.4788 32.1353 86.7141C4.60893 85.9361 -20.6479 70.0936 -41.4948 53.6609C-63.7822 36.0946 -86.4297 13.6254 -72.9486 -16.1413Z" stroke="white"/>
<path fill-rule="evenodd" clip-rule="evenodd" d="M-56.9603 -20.9686C-45.8874 -42.2957 -26.6933 -60.337 -8.99567 -76.4298C4.66187 -88.8538 24.8149 -109.979 44.519 -110.497C66.1956 -111.068 84.5666 -93.3356 93.1842 -75.1598C101.679 -57.2327 110.63 -34.7566 111.902 -15.0892C114.664 27.7397 58.4418 75.7156 16.2245 71.8117C-23.8027 68.1094 -79.0382 21.5244 -56.9603 -20.9686Z" stroke="white"/>
<path fill-rule="evenodd" clip-rule="evenodd" d="M-42.1741 -23.3199C-26.8984 -51.1074 10.2067 -90.7223 44.5584 -91.6631C83.9884 -92.7383 93.8867 -48.6546 88.7472 -16.7074C83.5261 15.8984 38.066 63.0935 1.8176 56.7161C-33.5607 50.4934 -60.2779 9.6353 -42.1741 -23.3199Z" stroke="white"/>
<path fill-rule="evenodd" clip-rule="evenodd" d="M-26.5621 -27.8114C-13.6286 -51.0774 13.9704 -80.1381 42.7556 -81.0177C77.0538 -82.0585 76.4068 -44.8396 68.6292 -21.6743C60.5416 2.37735 24.9224 43.4571 -5.10966 36.9708C-34.3127 30.639 -38.9564 -5.51227 -26.5621 -27.8114Z" stroke="white"/>
<path fill-rule="evenodd" clip-rule="evenodd" d="M-12.9644 -30.4909C-4.42738 -47.0922 16.9387 -68.0745 37.2504 -68.7459C62.0772 -69.5529 57.2511 -40.0326 50.8366 -25.7844C43.2121 -8.83041 17.6552 20.6289 -3.79199 15.8546C-24.908 11.155 -20.0075 -16.8124 -12.9644 -30.4909Z" stroke="white"/>
</g>
</svg>
