<svg width="37" height="37" viewBox="0 0 37 37" fill="none" xmlns="http://www.w3.org/2000/svg">
<path d="M23.1246 3.08203C17.9181 3.08422 13.456 6.80457 12.5176 11.9258C16.9991 9.47343 22.6201 11.1184 25.0725 15.5999C26.5865 18.3666 26.5865 21.714 25.0725 24.4808C30.9328 23.4072 34.8133 17.7862 33.7398 11.9259C32.8011 6.80147 28.3343 3.08006 23.1246 3.08203Z" fill="#C3E8F1"/>
<path d="M10.7923 33.9167C15.0495 33.9167 18.5007 30.4655 18.5007 26.2083C18.5007 21.9511 15.0495 18.5 10.7923 18.5C6.53512 18.5 3.08398 21.9511 3.08398 26.2083C3.08398 30.4655 6.53512 33.9167 10.7923 33.9167Z" fill="#027794"/>
<path d="M16.9577 10.793C12.2041 10.7934 8.22472 14.3968 7.75391 19.1269C11.6633 17.4473 16.1941 19.2549 17.8737 23.1642C18.7079 25.1059 18.7079 27.305 17.8737 29.2467C22.957 28.7413 26.6681 24.2107 26.1627 19.1273C25.6923 14.3964 21.7119 10.7925 16.9577 10.793Z" fill="#52A0B4"/>
</svg>
