<svg width="38" height="37" viewBox="0 0 38 37" fill="none" xmlns="http://www.w3.org/2000/svg">
<path d="M29.4622 9.25H7.87891C5.3246 9.25 3.25391 11.3207 3.25391 13.875V18.0697L13.7949 21.5833H23.5462L34.0872 18.0697V13.875C34.0872 11.3207 32.0166 9.25 29.4622 9.25Z" fill="#C3E8F1"/>
<path d="M15.5872 9.25V7.70833H21.7539V9.25H24.8372V7.70833C24.8353 6.00626 23.456 4.62694 21.7539 4.625H15.5872C13.8852 4.62694 12.5058 6.00626 12.5039 7.70833V9.25H15.5872ZM13.7949 21.5833L3.25391 18.0696V27.75C3.2567 30.3032 5.32574 32.3722 7.87891 32.375H29.4622C32.0154 32.3722 34.0845 30.3032 34.0872 27.75V18.0696L23.5462 21.5833H13.7949Z" fill="#027794"/>
</svg>
