<svg width="38" height="37" viewBox="0 0 38 37" fill="none" xmlns="http://www.w3.org/2000/svg">
<path d="M9.41927 25.4362C8.35208 25.4362 7.30885 25.1197 6.42151 24.5268C5.53417 23.9339 4.84257 23.0912 4.43417 22.1053C4.02578 21.1193 3.91892 20.0344 4.12712 18.9877C4.33532 17.941 4.84922 16.9796 5.60384 16.2249C6.35846 15.4703 7.31991 14.9564 8.3666 14.7482C9.41329 14.54 10.4982 14.6469 11.4842 15.0553C12.4701 15.4637 13.3128 16.1553 13.9057 17.0426C14.4986 17.9299 14.8151 18.9732 14.8151 20.0404C14.8134 21.4709 14.2443 22.8423 13.2328 23.8539C12.2213 24.8654 10.8498 25.4345 9.41927 25.4362Z" fill="#0388A9"/>
<path d="M13.4897 23.5427C12.9901 24.1358 12.367 24.6126 11.6639 24.9396C10.9608 25.2667 10.1947 25.4362 9.41927 25.4362C8.64382 25.4362 7.87774 25.2667 7.17465 24.9396C6.47155 24.6126 5.84842 24.1358 5.34887 23.5427C4.23885 24.2309 3.3224 25.1905 2.68592 26.3309C2.04944 27.4714 1.7139 28.7552 1.71094 30.0612C1.71094 30.4701 1.87336 30.8622 2.16248 31.1513C2.4516 31.4404 2.84373 31.6029 3.2526 31.6029H15.5859C15.9948 31.6029 16.3869 31.4404 16.6761 31.1513C16.9652 30.8622 17.1276 30.4701 17.1276 30.0612C17.1246 28.7552 16.7891 27.4714 16.1526 26.3309C15.5161 25.1905 14.5997 24.2309 13.4897 23.5427V23.5427ZM27.9193 25.4362C26.8521 25.4362 25.8088 25.1197 24.9215 24.5268C24.0342 23.9339 23.3426 23.0912 22.9342 22.1053C22.5258 21.1193 22.4189 20.0344 22.6271 18.9877C22.8353 17.941 23.3492 16.9796 24.1038 16.2249C24.8585 15.4703 25.8199 14.9564 26.8666 14.7482C27.9133 14.54 28.9982 14.6469 29.9842 15.0553C30.9701 15.4637 31.8128 16.1553 32.4057 17.0426C32.9986 17.9299 33.3151 18.9732 33.3151 20.0404C33.3134 21.4709 32.7443 22.8423 31.7328 23.8539C30.7212 24.8654 29.3498 25.4345 27.9193 25.4362Z" fill="#C3E8F1"/>
<path d="M31.9897 23.543C31.4901 24.1361 30.867 24.6128 30.1639 24.9399C29.4608 25.267 28.6947 25.4364 27.9193 25.4364C27.1438 25.4364 26.3777 25.267 25.6746 24.9399C24.9715 24.6128 24.3484 24.1361 23.8489 23.543C22.7389 24.2312 21.8224 25.1907 21.1859 26.3312C20.5494 27.4716 20.2139 28.7554 20.2109 30.0615C20.2109 30.4703 20.3734 30.8625 20.6625 31.1516C20.9516 31.4407 21.3437 31.6031 21.7526 31.6031H34.0859C34.4948 31.6031 34.8869 31.4407 35.1761 31.1516C35.4652 30.8625 35.6276 30.4703 35.6276 30.0615C35.6246 28.7554 35.2891 27.4716 34.6526 26.3312C34.0161 25.1907 33.0997 24.2312 31.9897 23.543V23.543Z" fill="#027794"/>
<path d="M26.698 8.93036L23.6147 5.84702C23.3247 5.56226 22.934 5.40353 22.5276 5.40537C22.1212 5.40721 21.7319 5.56947 21.4446 5.85685C21.1572 6.14423 20.9949 6.53346 20.9931 6.93987C20.9912 7.34628 21.15 7.73697 21.4347 8.02694L21.8864 8.47865H15.4547L15.9064 8.02694C16.1925 7.73723 16.3523 7.34611 16.351 6.93896C16.3498 6.53181 16.1874 6.14171 15.8995 5.85381C15.6116 5.56592 15.2215 5.40362 14.8144 5.40235C14.4072 5.40108 14.0161 5.56094 13.7264 5.84702L10.6431 8.93036C10.4999 9.07347 10.3863 9.2434 10.3088 9.43042C10.2313 9.61745 10.1914 9.81791 10.1914 10.0204C10.1914 10.2228 10.2313 10.4233 10.3088 10.6103C10.3863 10.7973 10.4999 10.9673 10.6431 11.1104L13.7264 14.1937C14.0161 14.4798 14.4072 14.6396 14.8144 14.6383C15.2215 14.637 15.6116 14.4747 15.8995 14.1868C16.1874 13.8989 16.3497 13.5088 16.351 13.1017C16.3523 12.6945 16.1924 12.3034 15.9063 12.0137L15.4546 11.562H21.8863L21.4346 12.0137C21.1455 12.3028 20.9831 12.6949 20.9831 13.1037C20.9831 13.5125 21.1455 13.9046 21.4346 14.1937C21.7237 14.4828 22.1158 14.6452 22.5247 14.6451C22.9335 14.6451 23.3256 14.4827 23.6147 14.1936L26.698 11.1103C26.8412 10.9672 26.9547 10.7972 27.0322 10.6102C27.1097 10.4232 27.1496 10.2228 27.1496 10.0203C27.1496 9.81788 27.1097 9.61742 27.0322 9.43041C26.9547 9.24339 26.8412 9.07347 26.698 8.93036V8.93036Z" fill="#027794"/>
</svg>
