<svg width="38" height="37" viewBox="0 0 38 37" fill="none" xmlns="http://www.w3.org/2000/svg">
<path d="M27.442 22.5434L23.7019 25.9823C21.7788 27.6588 19.5193 28.9045 17.0751 29.6359L18.0674 34.2658C18.1181 34.5022 18.2237 34.7233 18.3756 34.9114C18.5276 35.0995 18.7216 35.2492 18.9421 35.3485C19.1625 35.4478 19.4032 35.4938 19.6448 35.4829C19.8863 35.472 20.1219 35.4045 20.3325 35.2858L26.3531 31.89C27.2005 31.3751 27.8624 30.6044 28.2434 29.689C28.6244 28.7736 28.7048 27.7608 28.4729 26.7968L27.442 22.5434ZM11.2993 13.5308L14.5193 9.70764L10.5036 8.73873C9.52732 8.3983 8.46083 8.42266 7.50112 8.80731C6.54141 9.19196 5.75331 9.9109 5.2824 10.8314L1.89044 16.8437C1.77159 17.0543 1.70395 17.2899 1.69299 17.5315C1.68203 17.773 1.72806 18.0138 1.82735 18.2343C1.92664 18.4548 2.07642 18.6488 2.26457 18.8007C2.45272 18.9526 2.67397 19.0581 2.91043 19.1087L7.64759 20.1242C8.43294 17.7135 9.67246 15.4754 11.2993 13.5308V13.5308ZM25.8959 13.593C26.3533 13.593 26.8004 13.4574 27.1807 13.2033C27.561 12.9492 27.8574 12.588 28.0324 12.1655C28.2074 11.7429 28.2532 11.278 28.164 10.8294C28.0748 10.3808 27.8545 9.96876 27.5311 9.64535C27.2077 9.32195 26.7957 9.1017 26.3471 9.01247C25.8985 8.92324 25.4335 8.96904 25.011 9.14407C24.5884 9.3191 24.2273 9.61549 23.9732 9.99578C23.7191 10.3761 23.5834 10.8232 23.5834 11.2805C23.5837 11.8938 23.8274 12.4818 24.261 12.9155C24.6946 13.3491 25.2827 13.5928 25.8959 13.593V13.593Z" fill="#027794"/>
<path d="M34.9419 3.18026C34.8723 2.9162 34.7339 2.67534 34.5409 2.48225C34.3478 2.28917 34.1069 2.15078 33.8429 2.08122C30.6803 1.25915 27.3499 1.3473 24.2353 2.33551C21.1207 3.32373 18.3487 5.17179 16.2387 7.66677L11.2997 13.5308C8.83247 16.4736 7.26728 20.0661 6.79219 23.8769C6.76172 24.111 6.78544 24.3491 6.86153 24.5727C6.93762 24.7962 7.06404 24.9994 7.23104 25.1663L12.0104 29.9457C12.1535 30.0889 12.3234 30.2025 12.5104 30.28C12.6974 30.3575 12.8979 30.3974 13.1003 30.3974C13.1447 30.3974 13.1891 30.3951 13.2343 30.3913C17.1035 30.0716 20.7702 28.5273 23.7022 25.9824L29.3495 20.7898C31.8533 18.6853 33.7081 15.913 34.6981 12.7956C35.6882 9.67824 35.7727 6.34381 34.9419 3.18026V3.18026ZM25.8964 13.593C25.439 13.593 24.9919 13.4574 24.6116 13.2033C24.2313 12.9492 23.9349 12.588 23.7599 12.1655C23.5849 11.7429 23.5391 11.2779 23.6283 10.8294C23.7175 10.3808 23.9378 9.96874 24.2612 9.64533C24.5846 9.32192 24.9966 9.10167 25.4452 9.01245C25.8938 8.92322 26.3588 8.96901 26.7813 9.14404C27.2039 9.31907 27.565 9.61547 27.8191 9.99576C28.0732 10.376 28.2089 10.8231 28.2089 11.2805C28.2086 11.8938 27.9649 12.4818 27.5313 12.9155C27.0977 13.3491 26.5096 13.5928 25.8964 13.593V13.593Z" fill="#C3E8F1"/>
</svg>
